<svg preserveAspectRatio="none" width="100%" height="100%" overflow="visible" style="display: block;" viewBox="0 0 52 84" fill="none" xmlns="http://www.w3.org/2000/svg">
<g id="Illustration">
<circle id="Ellipse 20553" cx="26" cy="42" r="2" fill="var(--fill-0, white)"/>
<circle id="Ellipse 20566" cx="26" cy="46" r="2" fill="var(--fill-0, white)"/>
<circle id="Ellipse 20592" cx="22" cy="46" r="2" fill="var(--fill-0, white)"/>
<circle id="Ellipse 20542" cx="26" cy="38" r="2" fill="var(--fill-0, white)"/>
<circle id="Ellipse 20636" cx="26" cy="34" r="2" fill="var(--fill-0, white)"/>
<circle id="Ellipse 20642" cx="26" cy="58" r="2" fill="var(--fill-0, white)"/>
<circle id="Ellipse 20643" cx="22" cy="58" r="2" fill="var(--fill-0, white)"/>
<circle id="Ellipse 20644" cx="18" cy="58" r="2" fill="var(--fill-0, white)"/>
<circle id="Ellipse 20535" cx="38" cy="34" r="2" fill="var(--fill-0, white)"/>
<circle id="Ellipse 20640" opacity="0" cx="38" cy="38" r="2" fill="var(--fill-0, white)"/>
<circle id="Ellipse 20645" cx="38" cy="54" r="2" fill="var(--fill-0, white)"/>
<circle id="Ellipse 20646" cx="14" cy="54" r="2" fill="var(--fill-0, white)"/>
<circle id="Ellipse 20647" cx="30" cy="58" r="2" fill="var(--fill-0, white)"/>
<circle id="Ellipse 20648" cx="34" cy="58" r="2" fill="var(--fill-0, white)"/>
<circle id="Ellipse 20650" cx="14" cy="34" r="2" fill="var(--fill-0, white)"/>
<circle id="Ellipse 20652" cx="2" cy="26" r="2" fill="var(--fill-0, white)"/>
<circle id="Ellipse 20671" cx="50" cy="26" r="2" fill="var(--fill-0, white)"/>
<circle id="Ellipse 20662" cx="2" cy="22" r="2" fill="var(--fill-0, white)"/>
<circle id="Ellipse 20672" cx="50" cy="22" r="2" fill="var(--fill-0, white)"/>
<circle id="Ellipse 20663" cx="2" cy="18" r="2" fill="var(--fill-0, white)"/>
<circle id="Ellipse 20673" cx="50" cy="18" r="2" fill="var(--fill-0, white)"/>
<circle id="Ellipse 20664" cx="2" cy="14" r="2" fill="var(--fill-0, white)"/>
<circle id="Ellipse 20674" cx="50" cy="14" r="2" fill="var(--fill-0, white)"/>
<circle id="Ellipse 20665" cx="2" cy="10" r="2" fill="var(--fill-0, white)"/>
<circle id="Ellipse 20675" cx="50" cy="10" r="2" fill="var(--fill-0, white)"/>
<circle id="Ellipse 20666" cx="2" cy="6" r="2" fill="var(--fill-0, white)"/>
<circle id="Ellipse 20686" cx="6" cy="2" r="2" fill="var(--fill-0, white)"/>
<circle id="Ellipse 20700" cx="6" cy="82" r="2" fill="var(--fill-0, white)"/>
<circle id="Ellipse 20687" cx="10" cy="2" r="2" fill="var(--fill-0, white)"/>
<circle id="Ellipse 20701" cx="10" cy="82" r="2" fill="var(--fill-0, white)"/>
<circle id="Ellipse 20688" cx="14" cy="2" r="2" fill="var(--fill-0, white)"/>
<circle id="Ellipse 20702" cx="14" cy="82" r="2" fill="var(--fill-0, white)"/>
<circle id="Ellipse 20689" cx="18" cy="2" r="2" fill="var(--fill-0, white)"/>
<circle id="Ellipse 20703" cx="18" cy="82" r="2" fill="var(--fill-0, white)"/>
<circle id="Ellipse 20690" cx="22" cy="2" r="2" fill="var(--fill-0, white)"/>
<circle id="Ellipse 20704" cx="22" cy="82" r="2" fill="var(--fill-0, white)"/>
<circle id="Ellipse 20697" cx="22" cy="10" r="2" fill="var(--fill-0, white)"/>
<circle id="Ellipse 20698" cx="26" cy="10" r="2" fill="var(--fill-0, white)"/>
<circle id="Ellipse 20699" cx="30" cy="10" r="2" fill="var(--fill-0, white)"/>
<circle id="Ellipse 20691" cx="26" cy="2" r="2" fill="var(--fill-0, white)"/>
<circle id="Ellipse 20705" cx="26" cy="82" r="2" fill="var(--fill-0, white)"/>
<circle id="Ellipse 20692" cx="30" cy="2" r="2" fill="var(--fill-0, white)"/>
<circle id="Ellipse 20706" cx="30" cy="82" r="2" fill="var(--fill-0, white)"/>
<circle id="Ellipse 20693" cx="34" cy="2" r="2" fill="var(--fill-0, white)"/>
<circle id="Ellipse 20707" cx="34" cy="82" r="2" fill="var(--fill-0, white)"/>
<circle id="Ellipse 20694" cx="38" cy="2" r="2" fill="var(--fill-0, white)"/>
<circle id="Ellipse 20708" cx="38" cy="82" r="2" fill="var(--fill-0, white)"/>
<circle id="Ellipse 20695" cx="42" cy="2" r="2" fill="var(--fill-0, white)"/>
<circle id="Ellipse 20709" cx="42" cy="82" r="2" fill="var(--fill-0, white)"/>
<circle id="Ellipse 20696" cx="46" cy="2" r="2" fill="var(--fill-0, white)"/>
<circle id="Ellipse 20710" cx="46" cy="82" r="2" fill="var(--fill-0, white)"/>
<circle id="Ellipse 20676" cx="50" cy="6" r="2" fill="var(--fill-0, white)"/>
<circle id="Ellipse 20653" cx="2" cy="30" r="2" fill="var(--fill-0, white)"/>
<circle id="Ellipse 20677" cx="50" cy="30" r="2" fill="var(--fill-0, white)"/>
<circle id="Ellipse 20654" cx="2" cy="34" r="2" fill="var(--fill-0, white)"/>
<circle id="Ellipse 20678" cx="50" cy="34" r="2" fill="var(--fill-0, white)"/>
<circle id="Ellipse 20655" cx="2" cy="38" r="2" fill="var(--fill-0, white)"/>
<circle id="Ellipse 20679" cx="50" cy="38" r="2" fill="var(--fill-0, white)"/>
<circle id="Ellipse 20656" cx="2" cy="42" r="2" fill="var(--fill-0, white)"/>
<circle id="Ellipse 20680" cx="50" cy="42" r="2" fill="var(--fill-0, white)"/>
<circle id="Ellipse 20657" cx="2" cy="46" r="2" fill="var(--fill-0, white)"/>
<circle id="Ellipse 20711" cx="2" cy="66" r="2" fill="var(--fill-0, white)"/>
<circle id="Ellipse 20681" cx="50" cy="46" r="2" fill="var(--fill-0, white)"/>
<circle id="Ellipse 20658" cx="2" cy="50" r="2" fill="var(--fill-0, white)"/>
<circle id="Ellipse 20712" cx="2" cy="70" r="2" fill="var(--fill-0, white)"/>
<circle id="Ellipse 20682" cx="50" cy="50" r="2" fill="var(--fill-0, white)"/>
<circle id="Ellipse 20714" cx="50" cy="66" r="2" fill="var(--fill-0, white)"/>
<circle id="Ellipse 20659" cx="2" cy="54" r="2" fill="var(--fill-0, white)"/>
<circle id="Ellipse 20713" cx="2" cy="74" r="2" fill="var(--fill-0, white)"/>
<circle id="Ellipse 20717" cx="2" cy="78" r="2" fill="var(--fill-0, white)"/>
<circle id="Ellipse 20683" cx="50" cy="54" r="2" fill="var(--fill-0, white)"/>
<circle id="Ellipse 20715" cx="50" cy="70" r="2" fill="var(--fill-0, white)"/>
<circle id="Ellipse 20660" cx="2" cy="58" r="2" fill="var(--fill-0, white)"/>
<circle id="Ellipse 20684" cx="50" cy="58" r="2" fill="var(--fill-0, white)"/>
<circle id="Ellipse 20716" cx="50" cy="74" r="2" fill="var(--fill-0, white)"/>
<circle id="Ellipse 20718" cx="50" cy="78" r="2" fill="var(--fill-0, white)"/>
<circle id="Ellipse 20661" cx="2" cy="62" r="2" fill="var(--fill-0, white)"/>
<circle id="Ellipse 20685" cx="50" cy="62" r="2" fill="var(--fill-0, white)"/>
<circle id="Ellipse 20651" opacity="0" cx="14" cy="38" r="2" fill="var(--fill-0, white)"/>
</g>
</svg>
