<svg xmlns="http://www.w3.org/2000/svg" width="24" height="24" viewBox="0 0 24 24">
  <path fill="currentColor" d="M19.14,12.94c0.04-0.31,0.06-0.63,0.06-0.94c0-0.32-0.02-0.63-0.07-0.94l2.03-1.58c0.18-0.14,0.23-0.41,0.12-0.61l-1.92-3.32 c-0.12-0.22-0.39-0.3-0.61-0.22l-2.39,0.96c-0.5-0.38-1.04-0.7-1.64-0.94L14.46,2.81C14.43,2.57,14.22,2.4,13.98,2.4h-3.96 c-0.24,0-0.45,0.17-0.49,0.41L9.16,5.35C8.56,5.59,8.02,5.92,7.52,6.29L5.13,5.33C4.91,5.24,4.64,5.33,4.52,5.55L2.6,8.87 C2.48,9.09,2.53,9.36,2.71,9.5l2.03,1.58C4.7,11.37,4.67,11.68,4.67,12s0.02,0.63,0.07,0.94L2.71,14.52 c-0.18,0.14-0.23,0.41-0.12,0.61l1.92,3.32c0.12,0.22,0.39,0.3,0.61,0.22l2.39-0.96c0.5,0.38,1.04,0.7,1.64,0.94l0.37,2.54 c0.04,0.24,0.25,0.41,0.49,0.41h3.96c0.24,0,0.45-0.17,0.49-0.41l0.37-2.54c0.6-0.24,1.15-0.56,1.64-0.94l2.39,0.96 c0.22,0.09,0.49,0,0.61-0.22l1.92-3.32c0.12-0.22,0.07-0.49-0.12-0.61L19.14,12.94z M12,15.5c-1.93,0-3.5-1.57-3.5-3.5 s1.57-3.5,3.5-3.5s3.5,1.57,3.5,3.5S13.93,15.5,12,15.5z"/>
</svg>
