<svg xmlns="http://www.w3.org/2000/svg" width="24" height="24" viewBox="0 -960 960 960">
  <path fill="currentColor" d="M370-80q-16 0-27-11t-11-27v-90q-23-10-44.5-24T247-264l-78 45q-14 8-30 3t-24-19l-52-91q-8-14-3.5-30t18.5-24l78-45q-2-12-2-25t2-25l-78-45q-14-8-18.5-24t3.5-30l52-91q8-14 24-19t30 3l78 45q19-18 40.5-32t44.5-24v-90q0-16 11-27t27-11h220q16 0 27 11t11 27v90q23 10 44.5 24t40.5 32l78-45q14-8 30-3t24 19l52 91q8 14 3.5 30T804-580l-78 45q2 12 2 25t-2 25l78 45q14 8 18.5 24t-3.5 30l-52 91q-8 14-24 19t-30-3l-78-45q-19 18-40.5 32T628-208v90q0 16-11 27t-27 11H370Zm30-80h160v-120l28-11q28-11 52.5-26.5T685-355l22-20 104 60 40-69-102-59 6-29q5-24 5-48t-5-48l-6-29 102-59-40-69-104 60-22-20q-20-19-44.5-34.5T588-629l-28-11v-120H400v120l-28 11q-28 11-52.5 26.5T275-565l-22 20-104-60-40 69 102 59-6 29q-5 24-5 48t5 48l6 29-102 59 40 69 104-60 22 20q20 19 44.5 34.5T372-291l28 11v120Zm80-160q75 0 127.5-52.5T660-500q0-75-52.5-127.5T480-680q-75 0-127.5 52.5T300-500q0 75 52.5 127.5T480-320Zm0-180Z"/>
</svg>
